<svg width="25" height="24" viewBox="0 0 25 24" fill="none" xmlns="http://www.w3.org/2000/svg">
<path d="M0 0H24.5946V6.77176H24.5927V6.7853H22.1009L16.0941 18.446L9.09151 5.53671H10.7143L16.0941 15.6404C16.3647 15.1241 16.6704 14.5302 17.0114 13.859C17.3524 13.1876 17.6964 12.4963 18.0433 11.7848C18.3901 11.0734 18.7342 10.3706 19.0752 9.67634C19.4162 8.98207 19.7249 8.34809 20.0012 7.77434C20.2776 7.20058 20.5098 6.7129 20.698 6.31127C20.8861 5.90965 21.0096 5.65147 21.0684 5.53671H21.0842V5.52746H23.2738V1.28886H1.3208V12.7841H0V0Z" fill="#E4E5EA"/>
<path d="M0.00609518 17.1961H0V24H24.5946V11.1838H23.2738V22.7111H1.3208V18.4398H9.1157V18.4247L9.1268 18.446L9.84995 17.0175L4.0997 5.53671H2.42401L8.47042 17.1819H0.00609518V17.1961Z" fill="#E4E5EA"/>
</svg>
