<svg width="130" height="20" viewBox="0 0 130 20" fill="none" xmlns="http://www.w3.org/2000/svg">
<path fill-rule="evenodd" clip-rule="evenodd" d="M2.66915 0L11.0521 16.7428L9.9978 18.8261L0.226257 0H2.66915ZM29.8495 0L20.1551 18.8261L9.94638 0H12.3121L20.1551 14.7346C20.5494 13.9815 20.9951 13.1156 21.4922 12.1366C21.9893 11.1576 22.4908 10.1494 22.9966 9.11186C23.5023 8.07433 24.0037 7.04935 24.5008 6.03692C24.9979 5.02449 25.448 4.09992 25.8509 3.2632C26.2537 2.42647 26.5923 1.71528 26.8666 1.12957C27.1409 0.543864 27.3208 0.167345 27.4066 0H29.8495ZM48.3492 1.83241V0H35.9034V18.8513H48.3492V17.0189H37.8063V10.3669H46.6007V8.53453H37.8063V1.83241H48.3492ZM53.8889 18.8513V0H55.7918V17.0189H66.3348V18.8513H53.8889ZM71.8745 0V18.8513H81.1059C81.2431 18.8513 81.5475 18.8053 82.0188 18.7133C82.4903 18.6211 83.0003 18.4161 83.5489 18.0982C83.806 17.9476 84.076 17.751 84.3589 17.5084C84.6417 17.2656 84.8946 16.9686 85.1174 16.6173C85.3404 16.2658 85.5246 15.8516 85.6704 15.3747C85.8161 14.8977 85.8889 14.3414 85.8889 13.7055C85.8889 12.9859 85.7946 12.3583 85.6061 11.8228C85.4175 11.2873 85.1775 10.8271 84.886 10.4422C84.5946 10.0573 84.2646 9.74776 83.8961 9.51349C83.5274 9.2792 83.1546 9.09513 82.7774 8.96125C83.1546 8.5931 83.4803 8.08689 83.7546 7.44261C84.0289 6.79834 84.166 6.02438 84.166 5.12071C84.166 4.45134 84.0931 3.87401 83.9474 3.38871C83.8017 2.90341 83.6174 2.48505 83.3946 2.13364C83.1717 1.78221 82.9231 1.48936 82.6488 1.25508C82.3745 1.0208 82.1088 0.828351 81.8517 0.677741C81.5603 0.510397 81.2817 0.380707 81.016 0.288667C80.7503 0.196629 80.5102 0.129691 80.296 0.0878554C80.0816 0.0460193 79.9059 0.020918 79.7688 0.0125507C79.6317 0.00418355 79.5546 0 79.5374 0H71.8745ZM81.0546 17.0189C81.1231 17.0189 81.3117 16.9896 81.6203 16.931C81.9288 16.8724 82.2589 16.7344 82.6103 16.5169C82.9617 16.2993 83.2746 15.9688 83.5489 15.5253C83.8232 15.0819 83.9603 14.4753 83.9603 13.7055C83.9603 12.9356 83.8232 12.329 83.5489 11.8856C83.2746 11.4421 82.9617 11.1074 82.6103 10.8815C82.2589 10.6556 81.9246 10.5134 81.6074 10.4548C81.2903 10.3962 81.0975 10.3669 81.0288 10.3669H73.7773V17.0189H81.0546ZM80.0902 8.43413C79.7903 8.50106 79.6059 8.53453 79.5374 8.53453H73.7773V1.83241H79.5374C79.5717 1.83241 79.7345 1.85751 80.0259 1.90771C80.3174 1.95793 80.6346 2.08761 80.9774 2.29679C81.3203 2.50597 81.6331 2.83229 81.916 3.27575C82.1989 3.71921 82.3402 4.3342 82.3402 5.12071C82.3402 5.8905 82.2074 6.5013 81.9417 6.95312C81.676 7.40496 81.376 7.74801 81.0416 7.98229C80.7074 8.21657 80.3902 8.36719 80.0902 8.43413ZM104.852 0V1.83241H94.3086V8.53453H103.103V10.3669H94.3086V17.0189H104.852V18.8513H92.4057V0H104.852ZM119.108 10.8188L125.537 18.8513H128.058L120.574 9.41307L128.058 0H125.537L119.108 8.0325L113.04 0H110.186L117.668 9.41307L110.186 18.8513H113.04L119.108 10.8188Z" fill="#E4E5EA"/>
</svg>
